<?xml version="1.0" encoding="UTF-8"?>
<svg width="16px" height="16px" viewBox="0 0 16 16" version="1.1" xmlns="http://www.w3.org/2000/svg" xmlns:xlink="http://www.w3.org/1999/xlink">
    <!-- Generator: Sketch 51.3 (57544) - http://www.bohemiancoding.com/sketch -->
    <title>icone-correcteur</title>
    <desc>Created with Sketch.</desc>
    <defs></defs>
    <g id="icone-correcteur" stroke="none" stroke-width="1" fill="none" fill-rule="evenodd">
        <path d="M5.66895018,15 C5.22895018,15 4.82095018,14.7561349 4.60695018,14.3612572 C4.60095018,14.3500333 3.91895018,13.1113213 2.68195018,11.6562938 C1.41395018,10.1624928 0.443950182,9.32682135 0.434950182,9.31967886 C-0.0800498185,8.87990548 -0.147049818,8.09831288 0.283950182,7.57384997 C0.715950182,7.04938705 1.48195018,6.9810232 1.99495018,7.42079659 C2.04095018,7.45957011 3.12395018,8.39115502 4.51795018,10.0329076 C4.91795018,10.5032917 5.26495018,10.9522483 5.55995018,11.3573295 C6.25895018,10.1267804 7.31295018,8.43809139 8.66495018,6.74225993 C11.3699502,3.34651559 13.9419502,1.33641452 14.0509502,1.25274534 C14.5859502,0.838480857 15.3469502,0.944597868 15.7519502,1.4894679 C16.1599502,2.03433794 16.0549502,2.81184911 15.5209502,3.2261136 C15.4979502,3.24448 13.0599502,5.15458619 10.5479502,8.30646548 C8.18995018,11.2654975 6.77995018,14.2633031 6.76595018,14.2939137 C6.56995018,14.71328 6.16095018,14.985715 5.70695018,15 L5.66895018,15" id="correcteur" fill="#5BBA47"></path>
    </g>
</svg>