<?xml version="1.0" encoding="UTF-8"?>
<svg width="16px" height="16px" viewBox="0 0 16 16" version="1.1" xmlns="http://www.w3.org/2000/svg" xmlns:xlink="http://www.w3.org/1999/xlink">
    <!-- Generator: Sketch 51.3 (57544) - http://www.bohemiancoding.com/sketch -->
    <title>icone-dicos</title>
    <desc>Created with Sketch.</desc>
    <defs></defs>
    <g id="icone-dicos" stroke="none" stroke-width="1" fill="none" fill-rule="evenodd">
        <g id="dicos" transform="translate(1.000000, 0.000000)">
            <path d="M13.0444,1.275 C13.0444,0.577 12.4784,0.011 11.7804,0.011 L8.2004,0.011 L1.9984,0.011 L1.9984,15.988 L11.7804,15.988 C12.4784,15.988 13.0444,15.422 13.0444,14.724 L13.0444,1.275 Z" id="Fill-1" fill="#ABC755"></path>
            <path d="M0,1.0928 L0,14.9058 C0,15.5048 0.484,15.9888 1.082,15.9888 L2,15.9888 L2,0.0108 L1.082,0.0108 C0.484,0.0108 0,0.4948 0,1.0928" id="Fill-3" fill="#7D943D"></path>
            <path d="M11.9527,12.7594 L1.2967,12.7594 C0.9347,12.7594 0.5707,13.0884 0.5707,13.7784 C0.5707,14.3564 0.6897,14.9444 1.3467,14.9444 L11.9427,14.9444 C12.5517,14.9444 13.0447,14.4504 13.0447,13.8424 L13.0447,11.5694 C13.0447,12.7594 11.9527,12.7594 11.9527,12.7594" id="Fill-6" fill="#FFFFFF"></path>
            <path d="M11.9312,13.5094 L1.4852,13.5094 C0.9712,13.5094 1.0122,14.2574 1.4852,14.2574 L11.9312,14.2574 C11.9312,14.2574 13.0432,14.2574 13.0432,13.0414 L13.0432,12.2944 C13.0432,13.5094 11.9312,13.5094 11.9312,13.5094" id="Fill-8" fill="#C9CACB"></path>
        </g>
    </g>
</svg>